<?xml version="1.0" standalone="no"?>
<!DOCTYPE svg PUBLIC "-//W3C//DTD SVG 20010904//EN"
 "http://www.w3.org/TR/2001/REC-SVG-20010904/DTD/svg10.dtd">
<svg version="1.0" xmlns="http://www.w3.org/2000/svg"
 width="83.000000pt" height="83.000000pt" viewBox="0 0 83.000000 83.000000"
 preserveAspectRatio="xMidYMid meet">
<metadata>
Created by potrace 1.11, written by Peter Selinger 2001-2013
</metadata>
<g transform="translate(0.000000,83.000000) scale(0.100000,-0.100000)"
fill="#000000" stroke="none">
<path d="M411 794 c0 -11 3 -14 6 -6 3 7 2 16 -1 19 -3 4 -6 -2 -5 -13z"/>
<path d="M361 638 c0 -116 -1 -124 -23 -141 -13 -10 -33 -27 -46 -38 -12 -10
-29 -19 -38 -19 -8 0 -13 -4 -10 -9 3 -4 -38 -7 -92 -6 -53 0 -108 -2 -122 -6
-33 -9 -17 -11 117 -12 56 -1 99 -5 97 -9 -3 -5 -2 -7 3 -6 5 2 32 -15 61 -37
58 -44 55 -32 52 -202 -1 -44 3 -83 7 -86 5 -3 9 46 8 110 0 63 3 117 8 120 4
2 7 -1 7 -6 0 -21 2 -26 12 -38 7 -9 7 -13 -1 -13 -6 0 -11 -4 -11 -10 0 -5 7
-10 16 -10 12 0 15 6 10 25 -4 14 -2 25 4 25 9 0 14 -14 11 -32 0 -4 6 -19 14
-35 14 -26 20 -19 16 16 -2 8 3 10 11 6 7 -3 5 0 -5 8 -16 13 -17 19 -6 39 7
13 13 26 14 30 1 20 104 100 118 91 5 -3 7 -1 4 4 -4 7 14 10 51 11 31 0 86 1
122 2 106 3 30 17 -87 15 -56 -1 -100 2 -97 7 3 4 0 8 -6 8 -19 0 -109 73
-116 94 -3 10 -1 23 5 29 6 6 11 16 11 22 0 5 -5 3 -10 -5 -9 -13 -10 -13 -10
1 0 8 6 21 13 28 10 10 8 11 -8 5 -18 -7 -18 -6 -6 9 7 9 10 17 5 17 -5 0 -2
5 6 10 11 7 11 10 2 10 -7 0 -10 5 -7 10 3 6 1 10 -5 10 -6 0 -8 -11 -6 -25 3
-16 -1 -28 -12 -35 -11 -6 -13 -12 -6 -17 17 -13 23 -39 12 -54 -8 -11 -9 -11
-5 2 3 9 1 22 -4 30 -6 10 -9 8 -9 -10 0 -13 -3 -21 -7 -18 -3 4 -6 21 -5 39
0 20 -2 27 -7 19 -5 -7 -12 -12 -16 -12 -5 1 -10 -5 -11 -13 -1 -9 4 -12 12
-9 19 7 18 -4 -3 -27 -17 -18 -18 -17 -19 30 0 39 3 47 15 43 14 -4 14 -3 0 6
-12 8 -15 24 -13 71 1 33 -2 60 -6 60 -5 0 -9 -55 -9 -122z m42 -178 c-18 -17
-34 -26 -38 -21 -7 12 35 52 47 45 4 -3 8 0 8 7 0 7 3 9 7 5 4 -4 -7 -20 -24
-36z m75 12 c-20 -4 -24 -22 -5 -22 8 0 7 -3 -3 -10 -9 -5 -19 -5 -26 0 -6 6
-13 9 -15 7 -2 -1 4 5 15 14 11 10 16 21 11 29 -6 9 -2 9 16 -1 20 -11 21 -14
7 -17z m-108 9 c0 -5 -6 -14 -14 -20 -11 -9 -16 -9 -22 0 -4 8 -3 9 4 5 7 -4
12 -1 12 8 0 9 5 16 10 16 6 0 10 -4 10 -9z m70 -61 c0 -5 -5 -10 -11 -10 -5
0 -7 5 -4 10 3 6 8 10 11 10 2 0 4 -4 4 -10z m-115 -20 c-3 -5 -12 -10 -18
-10 -7 0 -6 4 3 10 19 12 23 12 15 0z m235 6 c0 -2 -7 -7 -16 -10 -8 -3 -12
-2 -9 4 6 10 25 14 25 6z m-166 -38 c-2 -3 2 -8 8 -11 7 -2 11 -7 8 -10 -9
-10 -53 30 -46 42 5 8 11 7 20 -2 8 -6 12 -15 10 -19z m98 8 c3 3 9 0 14 -7 4
-8 3 -10 -4 -5 -7 4 -12 3 -12 -3 0 -6 -10 -16 -22 -22 -23 -12 -23 -12 -5 9
14 15 15 22 6 28 -7 4 -10 3 -6 -3 4 -7 -3 -10 -17 -9 -13 0 -22 4 -20 8 2 3
-2 9 -8 12 -7 3 -3 3 10 0 14 -3 22 -1 22 7 0 8 6 6 18 -4 10 -10 21 -14 24
-11z m-111 -43 c10 -12 5 -11 -18 6 -18 12 -33 24 -33 27 0 9 37 -15 51 -33z
m54 -23 c-3 -5 -12 -10 -18 -10 -7 0 -6 4 3 10 19 12 23 12 15 0z"/>
<path d="M450 715 c0 -8 2 -15 4 -15 2 0 6 7 10 15 3 8 1 15 -4 15 -6 0 -10
-7 -10 -15z"/>
<path d="M450 155 c0 -8 2 -15 4 -15 2 0 6 7 10 15 3 8 1 15 -4 15 -6 0 -10
-7 -10 -15z"/>
<path d="M450 100 c0 -11 4 -20 10 -20 5 0 6 7 3 17 -5 12 -3 14 7 8 9 -5 11
-4 6 3 -11 19 -26 14 -26 -8z"/>
</g>
</svg>
